<svg width="1200" height="630" viewBox="0 0 1200 630" fill="none" xmlns="http://www.w3.org/2000/svg">
  <defs>
    <linearGradient id="page" x1="82" y1="72" x2="1139" y2="586" gradientUnits="userSpaceOnUse">
      <stop stop-color="#F9FCF9" />
      <stop offset="1" stop-color="#EEF5F1" />
    </linearGradient>
    <linearGradient id="accent" x1="780" y1="162" x2="1082" y2="454" gradientUnits="userSpaceOnUse">
      <stop stop-color="#D8FF67" />
      <stop offset="0.48" stop-color="#87F0D0" />
      <stop offset="1" stop-color="#7EC8FF" />
    </linearGradient>
    <linearGradient id="card" x1="687" y1="104" x2="1099" y2="543" gradientUnits="userSpaceOnUse">
      <stop stop-color="#0D1712" />
      <stop offset="1" stop-color="#101E17" />
    </linearGradient>
    <linearGradient id="borrow" x1="0" y1="0" x2="1" y2="0">
      <stop stop-color="#6FE8B7" />
      <stop offset="1" stop-color="#83F7D4" />
    </linearGradient>
    <linearGradient id="collateral" x1="0" y1="0" x2="1" y2="0">
      <stop stop-color="#59B5FF" />
      <stop offset="1" stop-color="#85D5FF" />
    </linearGradient>
    <filter id="blur" x="-30%" y="-30%" width="160%" height="160%">
      <feGaussianBlur stdDeviation="26" />
    </filter>
    <pattern id="grid" x="0" y="0" width="36" height="36" patternUnits="userSpaceOnUse">
      <path d="M36 0H0V36" stroke="#D8E4DE" stroke-opacity="0.44" stroke-width="1"/>
    </pattern>
  </defs>

  <rect width="1200" height="630" rx="38" fill="url(#page)" />
  <rect width="1200" height="630" rx="38" fill="url(#grid)" opacity="0.45" />

  <circle cx="1050" cy="116" r="126" fill="#C8FFD8" opacity="0.48" filter="url(#blur)" />
  <circle cx="926" cy="546" r="160" fill="#D7F0FF" opacity="0.7" filter="url(#blur)" />
  <circle cx="170" cy="562" r="124" fill="#F2F9D7" opacity="0.84" filter="url(#blur)" />

  <rect x="54" y="42" width="1092" height="546" rx="30" fill="#FFFFFF" fill-opacity="0.74" />
  <rect x="54" y="42" width="1092" height="546" rx="30" stroke="#DCE9E2" />

  <g transform="translate(95 92)">
    <rect width="62" height="62" rx="18" fill="#081611"/>
    <path d="M16 15.5H33.25C44.7109 15.5 54 24.7891 54 36.25C54 47.7109 44.7109 57 33.25 57H16V15.5Z" fill="#B8FF37"/>
    <path d="M23.5 25H33.25C39.158 25 43.95 29.792 43.95 35.7C43.95 41.608 39.158 46.4 33.25 46.4H23.5V25Z" fill="#081611"/>
  </g>

  <text x="174" y="133" fill="#112019" font-family="Arial, Helvetica, sans-serif" font-size="38" font-weight="700" letter-spacing="-0.04em">
    tokens.loans
  </text>
  <text x="175" y="168" fill="#65756D" font-family="Arial, Helvetica, sans-serif" font-size="22" font-weight="500" letter-spacing="-0.02em">
    Solana lending coverage
  </text>

  <text x="95" y="238" fill="#0D1712" font-family="Arial, Helvetica, sans-serif" font-size="56" font-weight="700" letter-spacing="-0.06em">
    Which Solana tokens
  </text>
  <text x="95" y="293" fill="#0D1712" font-family="Arial, Helvetica, sans-serif" font-size="56" font-weight="700" letter-spacing="-0.06em">
    can actually be used
  </text>
  <text x="95" y="348" fill="#0D1712" font-family="Arial, Helvetica, sans-serif" font-size="56" font-weight="700" letter-spacing="-0.06em">
    in lending?
  </text>

  <text x="98" y="400" fill="#66776D" font-family="Arial, Helvetica, sans-serif" font-size="22" font-weight="500" letter-spacing="-0.02em">
    Borrowable and collateral coverage across major
  </text>
  <text x="98" y="430" fill="#66776D" font-family="Arial, Helvetica, sans-serif" font-size="22" font-weight="500" letter-spacing="-0.02em">
    Solana lending venues.
  </text>

  <g transform="translate(96 480)">
    <rect width="154" height="62" rx="20" fill="#ECFFF6" stroke="#CBECDC" />
    <text x="20" y="25" fill="#4E675A" font-family="Arial, Helvetica, sans-serif" font-size="14" font-weight="700" letter-spacing="0.15em">
      BORROWABLE
    </text>
    <text x="20" y="46" fill="#102019" font-family="Arial, Helvetica, sans-serif" font-size="22" font-weight="700" letter-spacing="-0.03em">
      Debt markets
    </text>
  </g>

  <g transform="translate(268 480)">
    <rect width="164" height="62" rx="20" fill="#EEF8FF" stroke="#CAE0F7" />
    <text x="20" y="25" fill="#55718A" font-family="Arial, Helvetica, sans-serif" font-size="14" font-weight="700" letter-spacing="0.15em">
      COLLATERAL
    </text>
    <text x="20" y="46" fill="#102019" font-family="Arial, Helvetica, sans-serif" font-size="22" font-weight="700" letter-spacing="-0.03em">
      Venue access
    </text>
  </g>

  <g transform="translate(451 480)">
    <rect width="172" height="62" rx="20" fill="#F8FAF8" stroke="#D8E4DE" />
    <text x="20" y="25" fill="#6E7E75" font-family="Arial, Helvetica, sans-serif" font-size="14" font-weight="700" letter-spacing="0.15em">
      EXCLUDED
    </text>
    <text x="20" y="46" fill="#102019" font-family="Arial, Helvetica, sans-serif" font-size="22" font-weight="700" letter-spacing="-0.03em">
      Outside lending
    </text>
  </g>

  <g transform="translate(685 88)">
    <rect width="427" height="454" rx="32" fill="url(#card)" />
    <rect x="1" y="1" width="425" height="452" rx="31" stroke="#294234" />

    <text x="34" y="52" fill="#86A593" font-family="Arial, Helvetica, sans-serif" font-size="17" font-weight="700" letter-spacing="0.16em">
      COVERAGE SNAPSHOT
    </text>
    <text x="34" y="98" fill="#F6FFF8" font-family="Arial, Helvetica, sans-serif" font-size="30" font-weight="700" letter-spacing="-0.05em">
      Borrowable, collateral,
    </text>
    <text x="34" y="130" fill="#F6FFF8" font-family="Arial, Helvetica, sans-serif" font-size="30" font-weight="700" letter-spacing="-0.05em">
      or still excluded
    </text>
    <text x="34" y="162" fill="#9DB3A8" font-family="Arial, Helvetica, sans-serif" font-size="18" font-weight="500" letter-spacing="-0.02em">
      Most tokens still never make lending markets.
    </text>

    <rect x="34" y="205" width="359" height="40" rx="20" fill="#1B2A22" />
    <rect x="34" y="205" width="51" height="40" rx="20" fill="url(#borrow)" />
    <rect x="79" y="205" width="63" height="40" rx="20" fill="url(#collateral)" />
    <rect x="34" y="205" width="359" height="40" rx="20" stroke="#31473A" />

    <text x="34" y="284" fill="#F6FFF8" font-family="Arial, Helvetica, sans-serif" font-size="22" font-weight="700">
      Borrowable
    </text>
    <circle cx="40" cy="324" r="6" fill="#6FE8B7" />
    <text x="57" y="330" fill="#A4B8AE" font-family="Arial, Helvetica, sans-serif" font-size="17" font-weight="500">
      Debt market somewhere
    </text>

    <text x="34" y="378" fill="#F6FFF8" font-family="Arial, Helvetica, sans-serif" font-size="22" font-weight="700">
      Collateral
    </text>
    <circle cx="40" cy="418" r="6" fill="#67BCFF" />
    <text x="57" y="424" fill="#A4B8AE" font-family="Arial, Helvetica, sans-serif" font-size="17" font-weight="500">
      Collateral somewhere
    </text>

    <g transform="translate(34 463)">
      <rect width="204" height="44" rx="18" fill="#17241E" stroke="#2E4538" />
      <circle cx="20" cy="22" r="6" fill="#54665D" />
      <text x="36" y="28" fill="#B7C6BE" font-family="Arial, Helvetica, sans-serif" font-size="18" font-weight="600">
        Excluded still dominates
      </text>
    </g>

    <g transform="translate(301 286)">
      <circle cx="54" cy="54" r="88" fill="url(#accent)" opacity="0.18" />
      <circle cx="54" cy="54" r="66" fill="url(#accent)" opacity="0.22" />
      <circle cx="54" cy="54" r="42" fill="#F6FFF8" opacity="0.95" />
      <text x="54" y="63" text-anchor="middle" fill="#102019" font-family="Arial, Helvetica, sans-serif" font-size="26" font-weight="700">
        SPL
      </text>
    </g>
  </g>
</svg>
