<svg width="1200" height="630" viewBox="0 0 1200 630" fill="none" xmlns="http://www.w3.org/2000/svg">
  <defs>
    <linearGradient id="bg" x1="0" y1="0" x2="1200" y2="630" gradientUnits="userSpaceOnUse">
      <stop stop-color="#06130F"/>
      <stop offset="0.58" stop-color="#0B1E17"/>
      <stop offset="1" stop-color="#10291F"/>
    </linearGradient>
    <linearGradient id="rail" x1="0" y1="0" x2="1200" y2="0" gradientUnits="userSpaceOnUse">
      <stop stop-color="#B8FF37"/>
      <stop offset="0.54" stop-color="#7FF0CE"/>
      <stop offset="1" stop-color="#F7FFF8"/>
    </linearGradient>
    <linearGradient id="slash" x1="0" y1="0" x2="1200" y2="0" gradientUnits="userSpaceOnUse">
      <stop stop-color="#B8FF37" stop-opacity="0.18"/>
      <stop offset="0.55" stop-color="#7FF0CE" stop-opacity="0.06"/>
      <stop offset="1" stop-color="#FFFFFF" stop-opacity="0"/>
    </linearGradient>
    <pattern id="grid" width="36" height="36" patternUnits="userSpaceOnUse">
      <path d="M36 0H0V36" stroke="#B8FF37" stroke-opacity="0.075"/>
    </pattern>
  </defs>

  <rect width="1200" height="630" fill="url(#bg)"/>
  <rect width="1200" height="630" fill="url(#grid)" opacity="0.42"/>
  <rect x="-86" y="386" width="1372" height="130" transform="rotate(-4 -86 386)" fill="url(#slash)"/>
  <rect y="612" width="1200" height="18" fill="url(#rail)"/>

  <g transform="translate(64 54) scale(0.3733333333)">
    <rect width="150" height="150" fill="#06130F"/>
    <path d="M59 37H71.544L74.104 47.7295H91V60.9836H75.96V91.468C75.96 97.6533 78.6693 100.746 84.088 100.746H91V114H75.896C64.632 114 59 108.046 59 96.1385V37Z" fill="#B8FF37"/>
  </g>

  <text x="140" y="90" fill="#F7FFF8" font-family="Aeonik, Arial, Helvetica, sans-serif" font-size="32" font-weight="700" letter-spacing="0">
    tokens.loans
  </text>
  <text x="140" y="118" fill="#9BAD9F" font-family="Aeonik, Arial, Helvetica, sans-serif" font-size="18" font-weight="400" letter-spacing="0">
    Solana lending coverage
  </text>
  <text x="1136" y="90" text-anchor="end" fill="#9BAD9F" font-family="Aeonik, Arial, Helvetica, sans-serif" font-size="22" font-weight="500" letter-spacing="0">
    Updated May 7, 2026
  </text>

  <text x="64" y="345" fill="#B8FF37" font-family="Aeonik, Arial, Helvetica, sans-serif" font-size="224" font-weight="700" letter-spacing="0">
    114
  </text>
  <text x="478" y="345" fill="#F7FFF8" font-family="Aeonik, Arial, Helvetica, sans-serif" font-size="88" font-weight="700" letter-spacing="0">
    / 3,893
  </text>

  <text x="64" y="459" fill="#F7FFF8" font-family="Aeonik, Arial, Helvetica, sans-serif" font-size="78" font-weight="700" letter-spacing="0">
    tokens have lending
  </text>
  <text x="64" y="540" fill="#F7FFF8" font-family="Aeonik, Arial, Helvetica, sans-serif" font-size="78" font-weight="700" letter-spacing="0">
    access on Solana
  </text>

</svg>
